<svg width="82" height="80" viewBox="0 0 82 80" fill="none" xmlns="http://www.w3.org/2000/svg">
<path d="M81.5 39.5C81.5 61.0217 63.3853 78.5 41 78.5C18.6147 78.5 0.5 61.0217 0.5 39.5C0.5 17.9783 18.6147 0.5 41 0.5C63.3853 0.5 81.5 17.9783 81.5 39.5Z" fill="#6243FF" stroke="black"/>
<path d="M9.99999 64C0.799992 50.4 6.16666 25.6667 9.99999 15L15 9.5C10.6667 21.1667 4.6 49.4 15 69L9.99999 64Z" fill="#DFD8FF"/>
<path d="M26.5 27C22.5 12.6 33.5 3.33333 39.5 0.5H44.5C38.1 14.9 44.1667 33.5 48 41C52.8333 48.6667 57 66.9 35 78.5L30 77C52 63.5 31.5 45 26.5 27Z" fill="#DFD8FF"/>
<path d="M68 69C81 47.5 68.5 17.5 66.5 9.5L61.5 6C66.6667 23.1667 73.9 60.7 61.5 73.5L68 69Z" fill="#DFD8FF"/>
<path d="M9.99999 64C0.799992 50.4 6.16666 25.6667 9.99999 15L15 9.5C10.6667 21.1667 4.6 49.4 15 69L9.99999 64Z" stroke="black"/>
<path d="M26.5 27C22.5 12.6 33.5 3.33333 39.5 0.5H44.5C38.1 14.9 44.1667 33.5 48 41C52.8333 48.6667 57 66.9 35 78.5L30 77C52 63.5 31.5 45 26.5 27Z" stroke="black"/>
<path d="M68 69C81 47.5 68.5 17.5 66.5 9.5L61.5 6C66.6667 23.1667 73.9 60.7 61.5 73.5L68 69Z" stroke="black"/>
</svg>
