<svg width="290" height="353" viewBox="0 0 290 353" fill="none" xmlns="http://www.w3.org/2000/svg">
<path d="M8.31688 154.164C9.99276 148.198 19.2076 145.836 24.003 148.484L25.5817 151.81L36.0405 173.844L40.1846 182.574C37.2329 181.045 29.126 176.933 20.3111 172.719C9.29258 167.453 6.64101 160.131 8.31688 154.164Z" fill="url(#paint0_linear_6_2)"/>
<path d="M25.5817 151.81L24.003 148.484C19.2076 145.836 9.99276 148.198 8.31688 154.164C6.64101 160.131 9.29258 167.453 20.3111 172.719C29.126 176.933 37.2329 181.045 40.1846 182.574L36.0405 173.844M25.5817 151.81C21.8279 151.058 14.1458 150.397 13.4483 153.768C12.5763 157.981 10.8125 161.056 21.4511 167.922C32.0897 174.787 35.0159 173.728 36.0405 173.844M25.5817 151.81L36.0405 173.844" stroke="black"/>
<path d="M19.697 189.787C22.2347 183.652 33.5835 180.491 39.1575 182.74L40.7825 185.945L51.5484 207.18L55.8141 215.593C52.3746 214.31 42.9201 210.873 32.6179 207.396C19.7402 203.049 17.1593 195.923 19.697 189.787Z" fill="url(#paint1_linear_6_2)"/>
<path d="M40.7825 185.945L39.1575 182.74C33.5835 180.491 22.2347 183.652 19.697 189.787C17.1593 195.923 19.7402 203.049 32.6179 207.396C42.9201 210.873 52.3746 214.31 55.8141 215.593L51.5484 207.18M40.7825 185.945C36.3061 185.511 27.0702 185.505 25.938 188.95C24.5227 193.256 22.1261 196.495 34.4073 202.48C46.6886 208.465 50.319 207.151 51.5484 207.18M40.7825 185.945L51.5484 207.18" stroke="black"/>
<path d="M3.64821 110.711C7.66422 105.223 18.1613 106.253 22.1481 110.765L22.5267 114.766L25.0349 141.273L26.0287 151.776C23.5364 149.102 16.6575 141.849 9.07972 134.227C-0.392558 124.699 -0.367793 116.199 3.64821 110.711Z" fill="url(#paint2_linear_6_2)"/>
<path d="M22.5267 114.766L22.1481 110.765C18.1613 106.253 7.66422 105.223 3.64821 110.711C-0.367793 116.199 -0.392558 124.699 9.07972 134.227C16.6575 141.849 23.5364 149.102 26.0287 151.776L25.0349 141.273M22.5267 114.766C18.903 112.589 11.1531 109.033 9.14382 112.227C6.63218 116.22 3.62491 118.711 12.0928 129.736C20.5607 140.76 24.0119 140.77 25.0349 141.273M22.5267 114.766L25.0349 141.273" stroke="black"/>
<path d="M277.944 154.189C276.303 148.213 267.102 145.797 262.291 148.417L260.693 151.734L250.106 173.706L245.912 182.413C248.872 180.9 257.003 176.835 265.842 172.674C276.891 167.471 279.585 160.165 277.944 154.189Z" fill="url(#paint3_linear_6_2)"/>
<path d="M260.693 151.734L262.291 148.417C267.102 145.797 276.303 148.213 277.944 154.189C279.585 160.165 276.891 167.471 265.842 172.674C257.003 176.835 248.872 180.9 245.912 182.413L250.106 173.706M260.693 151.734C264.452 151.004 272.137 150.388 272.815 153.762C273.663 157.981 275.409 161.066 264.73 167.869C254.052 174.673 251.132 173.596 250.106 173.706M260.693 151.734L250.106 173.706" stroke="black"/>
<path d="M268.089 187.511C265.587 181.361 254.257 178.134 248.67 180.35L247.026 183.546L236.137 204.717L231.822 213.106C235.269 211.842 244.743 208.461 255.066 205.044C267.968 200.773 270.591 193.661 268.089 187.511Z" fill="url(#paint4_linear_6_2)"/>
<path d="M247.026 183.546L248.67 180.35C254.257 178.134 265.587 181.361 268.089 187.511C270.591 193.661 267.968 200.773 255.066 205.044C244.743 208.461 235.269 211.842 231.822 213.106L236.137 204.717M247.026 183.546C251.505 183.138 260.741 183.186 261.853 186.637C263.243 190.951 265.621 194.204 253.305 200.118C240.989 206.031 237.366 204.695 236.137 204.717M247.026 183.546L236.137 204.717" stroke="black"/>
<path d="M281.618 111.521C277.634 106.009 267.131 106.979 263.118 111.467L262.716 115.466L260.054 141.958L258.999 152.455C261.507 149.796 268.428 142.582 276.05 135.005C285.577 125.532 285.602 117.032 281.618 111.521Z" fill="url(#paint5_linear_6_2)"/>
<path d="M262.716 115.466L263.118 111.467C267.131 106.979 277.634 106.009 281.618 111.521C285.602 117.032 285.577 125.532 276.05 135.005C268.428 142.582 261.507 149.796 258.999 152.455L260.054 141.958M262.716 115.466C266.353 113.31 274.123 109.799 276.114 113.005C278.602 117.012 281.595 119.521 273.063 130.496C264.531 141.471 261.08 141.461 260.054 141.958M262.716 115.466L260.054 141.958" stroke="black"/>
<path d="M261.705 292.201C258.754 291.376 252.574 288.62 251.461 284.198C250.069 278.669 252.84 275.123 256.312 271.491C259.09 268.585 259.325 264.115 259.095 262.244C259.485 264.452 260.659 269.176 262.235 270.407C264.205 271.947 270.164 274.065 271.297 277.488C274.707 282.056 273.87 283.94 269.954 289.763C269.002 290.982 267.204 291.631 265.443 291.95C267.501 298.633 268.363 315.677 255.35 330.383C246.479 340.41 229.509 337.125 215.113 330.72C214.75 330.565 214.366 330.391 213.968 330.202C202.47 324.906 192.832 317.756 190.659 314.104C185.722 305.805 178.937 299.87 177.953 288.949L190.574 272.795C192.856 272.039 197.917 271.679 199.907 276.279C201.896 280.879 201.146 287.4 200.523 290.085C202.677 289.23 207.292 288.267 208.513 291.252C209.734 294.237 209.467 302.573 209.181 306.368C210.953 305.002 214.898 303.22 216.504 307.013C218.109 310.805 219.499 315.903 219.993 317.978C221.222 316.404 224.487 314.011 227.708 317.036C230.929 320.06 234.263 322.368 235.527 323.144C235.962 320.735 237.866 316.216 242.004 317.418C246.141 318.619 250.177 319.153 251.678 319.269C251.034 316.861 250.175 311.492 251.899 309.286C254.054 306.528 260.593 306.094 260.87 304.64C259.51 303.444 256.85 300.464 257.087 298.111C257.383 295.17 260.177 296.719 261.705 292.201Z" fill="url(#paint6_linear_6_2)"/>
<path d="M190.574 272.795L177.953 288.949C178.937 299.87 185.722 305.805 190.659 314.104C192.903 317.877 203.114 325.382 215.113 330.72M190.574 272.795C192.856 272.039 197.917 271.679 199.907 276.279C201.896 280.879 201.146 287.4 200.523 290.085M190.574 272.795C194.987 276.243 194.619 277.369 200.523 290.085M261.705 292.201C258.754 291.376 252.574 288.62 251.461 284.198C250.069 278.669 252.84 275.123 256.312 271.491C259.09 268.585 259.325 264.115 259.095 262.244C259.485 264.452 260.659 269.176 262.235 270.407C264.205 271.947 270.164 274.065 271.297 277.488C274.707 282.056 273.87 283.94 269.954 289.763C269.002 290.982 267.204 291.631 265.443 291.95M261.705 292.201C262.614 292.249 264.017 292.208 265.443 291.95M261.705 292.201C261.944 294.748 261.925 299.581 260.87 304.64M261.705 292.201C260.177 296.719 257.383 295.17 257.087 298.111C256.85 300.464 259.51 303.444 260.87 304.64M265.443 291.95C267.501 298.633 268.363 315.677 255.35 330.383M255.35 330.383C246.479 340.41 229.509 337.125 215.113 330.72M255.35 330.383C252.777 330.699 247.825 330.595 248.603 327.65C249.381 324.705 247.836 322.186 246.967 321.295M200.523 290.085C201.47 292.126 202.579 294.466 203.896 297.162C205.614 300.682 207.391 303.729 209.181 306.368M200.523 290.085C202.677 289.23 207.292 288.267 208.513 291.252C209.734 294.237 209.467 302.573 209.181 306.368M209.181 306.368C210.953 305.002 214.898 303.22 216.504 307.013C218.109 310.805 219.499 315.903 219.993 317.978M209.181 306.368C210.14 307.78 211.102 309.075 212.061 310.262M219.993 317.978C224.108 321.003 227.737 322.289 230.195 322.786C231.467 323.043 233.337 323.188 235.527 323.144M219.993 317.978C221.222 316.404 224.487 314.011 227.708 317.036C230.929 320.06 234.263 322.368 235.527 323.144M219.993 317.978C217.478 316.129 214.782 313.629 212.061 310.262M235.527 323.144C235.962 320.735 237.866 316.216 242.004 317.418C246.141 318.619 250.177 319.153 251.678 319.269M235.527 323.144C238.922 323.077 243.084 322.556 246.967 321.295M251.678 319.269C254.136 317.89 256.229 316.076 257.579 313.724C259.186 310.928 260.222 307.741 260.87 304.64M251.678 319.269C251.034 316.861 250.175 311.492 251.899 309.286C254.054 306.528 260.593 306.094 260.87 304.64M251.678 319.269C250.211 320.092 248.614 320.76 246.967 321.295M212.061 310.262C212.192 311.72 211.293 315.632 206.653 319.621C202.014 323.61 210.36 328.683 215.113 330.72" stroke="black"/>
<path d="M163.754 291.744C167.397 288.352 181.838 279.644 187.587 287.132C192.87 294.012 188.881 302.233 185.45 306.556C189.938 302.371 198.099 309.031 196.428 313.372C194.998 317.089 190.573 317.372 188.54 317.049C187.771 318.631 185.347 321.107 181.804 318.353C180.099 320.654 175.767 323.821 172.077 318.085C169.974 313.813 169.158 310.975 170.4 309.422C170.012 309.268 168.661 308.211 166.361 305.216C164.061 302.221 163.664 294.987 163.754 291.744Z" fill="#D5FEFF"/>
<path d="M184.562 307.606C188.105 303.695 193.337 294.619 187.587 287.132C181.838 279.644 167.397 288.352 163.754 291.744C163.664 294.987 164.061 302.221 166.361 305.216C168.661 308.211 170.012 309.268 170.4 309.422M184.562 307.606C188.74 301.422 198.217 308.726 196.428 313.372C194.998 317.089 190.573 317.372 188.54 317.049M184.562 307.606C180.845 306.175 177.486 308.079 176.272 309.21M184.562 307.606C186.696 308.447 190.478 311.513 188.54 317.049M188.54 317.049C187.771 318.631 185.347 321.107 181.804 318.353M176.272 309.21C182.463 312.312 182.539 316.598 181.804 318.353M176.272 309.21C175.793 308.586 174.233 307.562 171.826 308.458C171.198 308.692 170.728 309.012 170.4 309.422M181.804 318.353C180.099 320.654 175.767 323.821 172.077 318.085C169.974 313.813 169.158 310.975 170.4 309.422M177.993 298.664C178.188 300.597 179.865 303.892 185.013 301.606C186.484 298.096 179.565 295.672 177.993 298.664ZM169.336 292.814C167.915 293.806 166.294 295.983 171.174 296.759C175.239 295.542 175.431 294.681 175.018 294.402C174.506 293.605 172.652 292.172 169.336 292.814ZM177.425 290.174C176.974 290.619 176.67 291.825 179.063 293.082C181.457 294.339 184.484 292.391 185.698 291.26C185.019 289.6 182.413 287.058 177.425 290.174Z" stroke="black"/>
<path d="M121.906 292.745C118.391 289.219 104.284 279.982 98.2604 287.251C92.7256 293.93 96.4064 302.294 99.6745 306.741C95.3451 302.393 86.9428 308.745 88.4512 313.145C89.743 316.913 94.154 317.36 96.1981 317.112C96.9077 318.722 99.2376 321.286 102.881 318.665C104.499 321.027 108.71 324.354 112.611 318.759C114.871 314.568 115.791 311.762 114.608 310.164C115.002 310.024 116.392 309.018 118.801 306.11C121.21 303.203 121.875 295.989 121.906 292.745Z" fill="#D5FEFF"/>
<path d="M100.524 307.823C97.128 303.783 92.237 294.52 98.2604 287.251C104.284 279.982 118.391 289.219 121.906 292.745C121.875 295.989 121.21 303.203 118.801 306.11C116.392 309.018 115.002 310.024 114.608 310.164M100.524 307.823C96.5776 301.488 86.8365 308.435 88.4512 313.145C89.743 316.913 94.154 317.36 96.1981 317.112M100.524 307.823C104.291 306.531 107.577 308.559 108.748 309.734M100.524 307.823C98.3601 308.585 94.4661 311.508 96.1981 317.112M96.1981 317.112C96.9077 318.722 99.2376 321.286 102.881 318.665M108.748 309.734C102.447 312.604 102.211 316.884 102.881 318.665M108.748 309.734C109.25 309.128 110.847 308.163 113.219 309.148C113.838 309.404 114.296 309.742 114.608 310.164M102.881 318.665C104.499 321.027 108.71 324.354 112.611 318.759C114.871 314.568 115.791 311.762 114.608 310.164M107.419 299.131C107.153 301.056 105.355 304.286 100.295 301.81C98.9559 298.248 105.96 296.083 107.419 299.131ZM116.288 293.607C117.671 294.651 119.21 296.886 114.305 297.48C110.288 296.114 110.128 295.246 110.551 294.983C111.092 294.206 112.998 292.842 116.288 293.607ZM108.302 290.668C108.737 291.13 108.996 292.346 106.558 293.513C104.119 294.68 101.166 292.622 99.9945 291.446C100.735 289.812 103.434 287.369 108.302 290.668Z" stroke="black"/>
<path d="M173.074 266.178C171.612 253.173 165.167 234.154 162.191 226.146L125.191 226.038C116.633 246.013 115.905 251.511 113.074 266.003C110.537 278.995 113.016 286.003 118.002 291.017C121.155 294.189 127.984 297.046 144.983 297.596C161.981 298.145 164.951 294.195 168.001 291.163C173.016 286.177 174.37 277.702 173.074 266.178Z" fill="url(#paint7_linear_6_2)" stroke="black"/>
<path d="M121.163 235.526C122.83 235.364 127.066 234.743 130.669 233.554C135.173 232.067 147.178 230.602 155.669 233.627C162.462 236.046 165.162 235.988 165.663 235.656M116.624 249.013C118.288 250.018 123.417 251.433 130.624 249.054C139.633 246.08 148.131 246.605 155.619 250.627C162.615 252.147 167.452 250.994 169.624 249.167M113.582 263.504C115.413 264.343 121.376 265.527 130.582 263.554C142.089 261.087 143.09 260.59 155.577 265.126C165.567 268.756 171.409 265.673 173.081 263.677M112.042 277C115.872 278.178 125.835 279.64 135.045 276.067C146.558 271.6 147.552 273.603 155.542 277.126C161.934 279.945 169.874 277.668 173.045 276.177M118 291.517C121 291.693 128.601 291.348 135.009 288.567C143.019 285.09 152.512 287.618 155.506 289.626C157.901 291.233 166.506 289.658 170.509 288.67" stroke="black"/>
<path d="M63.5251 276.86C57.6062 274.418 50.6411 262.842 61.3995 252.33C69.19 244.718 73.9307 245.027 74.8171 246.632C74.0919 245.319 69.636 240.355 76.4886 238.283C83.3413 236.212 83.6289 237.766 88.3849 239.138C92.4739 235.165 97.876 230.468 103.932 236.262C104.438 239.702 105.426 245.403 106.542 249.712C107.254 252.461 108.018 254.643 108.743 255.311C105.883 252.892 99.404 249.159 96.3628 253.581C94.7698 255.897 93.6654 258.946 92.9388 261.755C92.2783 264.309 91.9301 266.665 91.811 268.09C90.286 266.452 88.3202 263.711 85.3714 262.359C82.8878 261.221 79.7069 261.067 75.5048 263.389C68.3167 267.359 64.8126 271.041 63.8082 274.27C63.5283 275.17 63.4425 276.035 63.5251 276.86Z" fill="url(#paint8_linear_6_2)"/>
<path d="M63.8082 274.27C64.8126 271.041 68.3167 267.359 75.5048 263.389C79.7069 261.067 82.8878 261.221 85.3714 262.359M63.8082 274.27C63.5283 275.17 63.4425 276.035 63.5251 276.86C57.6062 274.418 50.6411 262.842 61.3995 252.33C69.19 244.718 73.9307 245.027 74.8171 246.632C74.0919 245.319 69.636 240.355 76.4886 238.283C83.3413 236.212 83.6289 237.766 88.3849 239.138C92.4739 235.165 97.876 230.468 103.932 236.262C104.438 239.702 105.426 245.403 106.542 249.712M63.8082 274.27C61.588 270.596 58.2582 261.948 62.6999 256.753C68.2521 250.258 72.237 249.2 76.7512 250.133C80.3625 250.88 84.0027 258.595 85.3714 262.359M85.3714 262.359C88.3202 263.711 90.286 266.452 91.811 268.09C91.9301 266.665 92.2783 264.309 92.9388 261.755M92.9388 261.755C93.6654 258.946 94.7698 255.897 96.3628 253.581C99.404 249.159 105.883 252.892 108.743 255.311C108.018 254.643 107.254 252.461 106.542 249.712M92.9388 261.755C92.8019 258.785 92.1137 251.472 90.4564 245.99C92.4472 242.149 96.538 241.489 98.3345 241.639L106.542 249.712" stroke="black"/>
<path d="M220.891 278.81C227.007 276.917 234.997 266.023 225.24 254.575C218.174 246.286 213.425 246.163 212.396 247.68C213.238 246.439 218.127 241.9 211.492 239.214C204.856 236.527 204.428 238.049 199.567 238.982C195.856 234.654 190.904 229.485 184.346 234.703C183.529 238.084 182.027 243.671 180.523 247.86C179.564 250.533 178.604 252.637 177.822 253.236C180.89 251.087 187.682 247.959 190.308 252.639C191.683 255.091 192.506 258.228 192.974 261.092C193.399 263.695 193.532 266.072 193.52 267.503C195.188 266.01 197.395 263.46 200.455 262.382C203.032 261.474 206.213 261.611 210.187 264.304C216.984 268.913 220.138 272.899 220.845 276.206C221.042 277.127 221.048 277.996 220.891 278.81Z" fill="url(#paint9_linear_6_2)"/>
<path d="M220.845 276.206C220.138 272.899 216.984 268.913 210.187 264.304C206.213 261.611 203.032 261.474 200.455 262.382M220.845 276.206C221.042 277.127 221.048 277.996 220.891 278.81C227.007 276.917 234.997 266.023 225.24 254.575C218.174 246.286 213.425 246.163 212.396 247.68C213.238 246.439 218.127 241.9 211.492 239.214C204.856 236.527 204.428 238.049 199.567 238.982C195.856 234.654 190.904 229.485 184.346 234.703C183.529 238.084 182.027 243.671 180.523 247.86M220.845 276.206C223.39 272.748 227.493 264.439 223.542 258.861C218.604 251.889 214.732 250.472 210.152 250.991C206.487 251.406 202.16 258.758 200.455 262.382M200.455 262.382C197.395 263.46 195.188 266.01 193.52 267.503C193.532 266.072 193.399 263.695 192.974 261.092M192.974 261.092C192.506 258.228 191.683 255.091 190.308 252.639C187.682 247.959 180.89 251.087 177.822 253.236C178.604 252.637 179.564 250.533 180.523 247.86M192.974 261.092C193.38 258.146 194.731 250.926 196.88 245.618C195.247 241.611 191.234 240.581 189.431 240.567L180.523 247.86" stroke="black"/>
<path d="M148.795 220.858L162.893 216.82C166.64 219.654 174.386 227.172 180.319 237.663C181.714 240.129 183.008 242.758 184.127 245.53C188.611 260.787 189.027 270.231 188.674 273.046C190.211 272.711 193.527 273.148 194.492 277.576C195.698 283.111 195.338 283.673 191.387 285.5C188.434 286.143 186.893 285.006 186.153 283.65C185.832 284.394 184.544 286.025 181.961 286.587C180.277 287.728 177.234 286.329 175.924 285.487C175.169 286.457 173.197 288.497 171.352 288.899C164.233 289.484 165.274 285.392 164.351 285.593C163.428 285.794 161.199 279.999 166.232 276.487C166.157 273.445 165.854 266.674 165.187 258.837C164.941 255.943 164.645 252.903 164.293 249.852C162.988 238.541 153.417 225.81 148.795 220.858Z" fill="#D5FEFF"/>
<path d="M188.674 273.046C189.027 270.231 188.611 260.787 184.127 245.53C183.008 242.758 181.714 240.129 180.319 237.663M188.674 273.046C190.211 272.711 193.527 273.148 194.492 277.576C195.698 283.111 195.338 283.673 191.387 285.5C188.434 286.143 186.893 285.006 186.153 283.65M188.674 273.046C186.398 274.307 185.704 276.03 185.533 277.595M185.533 277.595C185.379 278.996 185.644 280.269 185.569 280.97C185.502 281.59 185.621 282.676 186.153 283.65M185.533 277.595C183.865 276.187 180.222 273.728 178.987 275.157C176.404 275.719 174.863 277.666 174.416 278.569M174.416 278.569C175.145 279.698 176.468 282.663 175.924 285.487M174.416 278.569C173.379 277.506 170.291 275.602 166.232 276.487M175.924 285.487C177.234 286.329 180.277 287.728 181.961 286.587C184.544 286.025 185.832 284.394 186.153 283.65M175.924 285.487C175.169 286.457 173.197 288.497 171.352 288.899C164.233 289.484 165.274 285.392 164.351 285.593C163.428 285.794 161.199 279.999 166.232 276.487M166.232 276.487C166.157 273.445 165.854 266.674 165.187 258.837M180.319 237.663C174.386 227.172 166.64 219.654 162.893 216.82L148.795 220.858C153.417 225.81 162.988 238.541 164.293 249.852C164.645 252.903 164.941 255.943 165.187 258.837M180.319 237.663C180.82 240.453 180.746 245.977 176.445 245.755C171.07 245.477 171.07 245.477 169.089 254.122C167.504 261.038 165.827 260.147 165.187 258.837M162.62 233.306C163.85 233.038 166.551 233.609 167.516 238.037C163.826 238.841 161.278 236.015 162.62 233.306ZM158.925 222.999C159.413 224.503 161.112 226.387 162.798 227.47C164.884 228.175 166.434 227.16 166.949 226.565C166.594 225.676 165.568 223.774 164.3 223.277C162.715 222.656 160.669 222.136 158.925 222.999ZM170.461 231.598C169.74 232.721 168.859 235.329 171.106 236.772C173.353 238.215 175.318 237.626 176.02 237.151C176.28 236.128 176.464 233.865 175.115 232.999C173.767 232.133 171.451 231.704 170.461 231.598Z" stroke="black"/>
<path d="M138.205 220.858L124.107 216.82C120.36 219.654 112.614 227.172 106.681 237.663C105.286 240.129 103.992 242.758 102.873 245.53C98.3887 260.787 97.9735 270.231 98.3264 273.046C96.7889 272.711 93.4727 273.148 92.5077 277.576C91.3016 283.111 91.6623 283.673 95.6126 285.5C98.5661 286.143 100.107 285.006 100.847 283.65C101.168 284.394 102.456 286.025 105.039 286.587C106.723 287.728 109.766 286.329 111.076 285.487C111.831 286.457 113.803 288.497 115.648 288.899C122.767 289.484 121.727 285.392 122.649 285.593C123.572 285.794 125.801 279.999 120.768 276.487C120.843 273.445 121.146 266.674 121.813 258.837C122.059 255.943 122.355 252.903 122.707 249.852C124.012 238.541 133.583 225.81 138.205 220.858Z" fill="#D5FEFF"/>
<path d="M98.3264 273.046C97.9735 270.231 98.3887 260.787 102.873 245.53C103.992 242.758 105.286 240.129 106.681 237.663M98.3264 273.046C96.7889 272.711 93.4727 273.148 92.5077 277.576C91.3016 283.111 91.6623 283.673 95.6126 285.5C98.5661 286.143 100.107 285.006 100.847 283.65M98.3264 273.046C100.602 274.307 101.296 276.03 101.467 277.595M101.467 277.595C101.621 278.996 101.356 280.269 101.431 280.97C101.498 281.59 101.379 282.676 100.847 283.65M101.467 277.595C103.135 276.187 106.778 273.728 108.013 275.157C110.596 275.719 112.137 277.666 112.584 278.569M112.584 278.569C111.855 279.698 110.532 282.663 111.076 285.487M112.584 278.569C113.621 277.506 116.709 275.602 120.768 276.487M111.076 285.487C109.766 286.329 106.723 287.728 105.039 286.587C102.456 286.025 101.168 284.394 100.847 283.65M111.076 285.487C111.831 286.457 113.803 288.497 115.648 288.899C122.767 289.484 121.727 285.392 122.649 285.593C123.572 285.794 125.801 279.999 120.768 276.487M120.768 276.487C120.843 273.445 121.146 266.674 121.813 258.837M106.681 237.663C112.614 227.172 120.36 219.654 124.107 216.82L138.205 220.858C133.583 225.81 124.012 238.541 122.707 249.852C122.355 252.903 122.059 255.943 121.813 258.837M106.681 237.663C106.18 240.453 106.254 245.977 110.555 245.755C115.93 245.477 115.93 245.477 117.911 254.122C119.496 261.038 121.173 260.147 121.813 258.837M124.38 233.306C123.15 233.038 120.449 233.609 119.484 238.037C123.174 238.841 125.722 236.015 124.38 233.306ZM128.076 222.999C127.587 224.503 125.888 226.387 124.202 227.47C122.116 228.175 120.566 227.16 120.051 226.565C120.406 225.676 121.432 223.774 122.7 223.277C124.285 222.656 126.331 222.136 128.076 222.999ZM116.539 231.598C117.26 232.721 118.141 235.329 115.894 236.772C113.647 238.215 111.682 237.626 110.98 237.151C110.72 236.128 110.536 233.865 111.885 232.999C113.233 232.133 115.549 231.704 116.539 231.598Z" stroke="black"/>
<mask id="path-29-inside-1_6_2" fill="white">
<path fill-rule="evenodd" clip-rule="evenodd" d="M246.956 183.991C259.621 168.68 267.005 150.387 267.062 130.719C267.22 76.5954 211.831 32.5578 143.348 32.3582C74.8653 32.1587 19.221 75.8729 19.0633 129.997C19.0039 150.386 26.8273 169.343 40.2639 185.065C32.3424 189.039 27.8782 193.536 27.8643 198.31C27.818 214.213 77.1872 227.342 139.301 228.31C140.456 228.338 141.615 228.354 142.777 228.357C143.084 228.358 143.39 228.358 143.696 228.357C144.222 228.361 144.749 228.363 145.277 228.365C210.17 228.554 262.816 215.404 262.863 198.994C262.879 193.541 257.084 188.413 246.956 183.991Z"/>
</mask>
<path fill-rule="evenodd" clip-rule="evenodd" d="M246.956 183.991C259.621 168.68 267.005 150.387 267.062 130.719C267.22 76.5954 211.831 32.5578 143.348 32.3582C74.8653 32.1587 19.221 75.8729 19.0633 129.997C19.0039 150.386 26.8273 169.343 40.2639 185.065C32.3424 189.039 27.8782 193.536 27.8643 198.31C27.818 214.213 77.1872 227.342 139.301 228.31C140.456 228.338 141.615 228.354 142.777 228.357C143.084 228.358 143.39 228.358 143.696 228.357C144.222 228.361 144.749 228.363 145.277 228.365C210.17 228.554 262.816 215.404 262.863 198.994C262.879 193.541 257.084 188.413 246.956 183.991Z" fill="#D5FEFF"/>
<path d="M246.956 183.991L246.186 183.353L245.34 184.376L246.556 184.907L246.956 183.991ZM40.2639 185.065L40.7122 185.959L41.8538 185.387L41.0241 184.416L40.2639 185.065ZM139.301 228.31L139.326 227.31L139.317 227.31L139.301 228.31ZM143.696 228.357L143.703 227.357L143.693 227.357L143.696 228.357ZM266.062 130.716C266.006 150.125 258.721 168.199 246.186 183.353L247.727 184.628C260.521 169.161 268.004 150.649 268.062 130.722L266.062 130.716ZM143.345 33.3582C211.508 33.5568 266.218 77.3513 266.062 130.716L268.062 130.722C268.222 75.8395 212.154 31.5587 143.351 31.3582L143.345 33.3582ZM20.0633 129.999C20.2188 76.6346 75.1825 33.1596 143.345 33.3582L143.351 31.3582C74.5481 31.1578 18.2232 75.1111 18.0633 129.994L20.0633 129.999ZM41.0241 184.416C27.7224 168.852 20.0047 150.12 20.0633 129.999L18.0633 129.994C18.0031 150.652 25.9321 169.835 39.5037 185.715L41.0241 184.416ZM28.8643 198.313C28.8703 196.26 29.8291 194.175 31.8236 192.077C33.8226 189.974 36.8082 187.918 40.7122 185.959L39.8155 184.172C35.7981 186.187 32.5909 188.366 30.374 190.699C28.1525 193.036 26.8723 195.587 26.8643 198.307L28.8643 198.313ZM139.317 227.31C108.315 226.827 80.5308 223.308 60.5317 217.944C50.5247 215.261 42.5236 212.129 37.0506 208.721C31.5222 205.279 28.8544 201.738 28.8643 198.313L26.8643 198.307C26.8511 202.833 30.3371 206.897 35.9934 210.419C41.7052 213.976 49.9199 217.169 60.0136 219.876C80.216 225.295 108.173 228.825 139.286 229.309L139.317 227.31ZM142.78 227.357C141.625 227.354 140.473 227.338 139.326 227.31L139.277 229.309C140.439 229.338 141.605 229.354 142.774 229.357L142.78 227.357ZM143.693 227.357C143.389 227.358 143.085 227.358 142.78 227.357L142.774 229.357C143.083 229.358 143.391 229.358 143.699 229.357L143.693 227.357ZM145.28 227.365C144.753 227.363 144.228 227.361 143.703 227.357L143.69 229.357C144.217 229.361 144.745 229.363 145.274 229.365L145.28 227.365ZM261.863 198.991C261.853 202.528 258.986 206.169 253.085 209.673C247.249 213.14 238.741 216.287 228.145 218.934C206.967 224.224 177.669 227.459 145.28 227.365L145.274 229.365C177.779 229.459 207.25 226.215 228.63 220.874C239.312 218.206 248.031 215.001 254.107 211.393C260.118 207.822 263.85 203.666 263.863 198.997L261.863 198.991ZM246.556 184.907C251.567 187.096 255.435 189.429 258.034 191.839C260.632 194.25 261.87 196.648 261.863 198.991L263.863 198.997C263.872 195.888 262.22 192.995 259.394 190.373C256.566 187.75 252.473 185.309 247.356 183.074L246.556 184.907Z" fill="black" mask="url(#path-29-inside-1_6_2)"/>
<path d="M178.968 48.6156C174.345 48.0998 162.208 47.5621 147.103 73.6391C135.019 94.5008 138.888 115.476 142.334 123.356C132.918 114.454 114.68 91.6285 110.109 73.5314C107.041 61.3881 105.656 53.8957 105.637 48.402C102.811 53.417 101.498 52.9109 97.4551 51.8944C93.4118 50.878 88.2475 37.8024 97.518 30.2945C104.934 24.2883 111.331 25.3115 116.2 27.8373C124.698 20.723 137.33 15.3406 147.273 15.3696C160.767 15.4089 183.662 24.5176 184.808 28.0372C188.09 25.87 200.267 22.0543 204.454 30.6061C207.655 37.1456 207.321 38.6517 207.291 48.6982C198.058 43.648 193.972 57.1989 187.613 57.1804C181.597 58.7703 179.73 51.6318 178.968 48.6156Z" fill="url(#paint10_linear_6_2)"/>
<path d="M178.968 48.6156C174.345 48.0998 162.208 47.5621 147.103 73.6391C135.019 94.5008 138.888 115.476 142.334 123.356C132.918 114.454 114.68 91.6285 110.109 73.5314C107.041 61.3881 105.656 53.8957 105.637 48.402M178.968 48.6156C178.974 46.6064 179.593 32.543 184.808 28.0372M178.968 48.6156C179.73 51.6318 181.597 58.7703 187.613 57.1804C193.972 57.1989 198.058 43.648 207.291 48.6982C207.321 38.6517 207.655 37.1456 204.454 30.6061C200.267 22.0543 188.09 25.87 184.808 28.0372M184.808 28.0372C183.662 24.5176 160.767 15.4089 147.273 15.3696C137.33 15.3406 124.698 20.723 116.2 27.8373M116.2 27.8373C112.841 30.649 110.128 33.7311 108.482 36.8567C106.638 40.3566 105.62 43.6231 105.637 48.402M116.2 27.8373C111.331 25.3115 104.934 24.2883 97.518 30.2945C88.2475 37.8024 93.4118 50.878 97.4551 51.8944C101.498 52.9109 102.811 53.417 105.637 48.402" stroke="black"/>
<path d="M233.411 11.0005C231.45 -2.50528 244.44 1.03259 249.424 6.54713C254.901 14.5631 261.885 19.7835 261.804 47.5834C261.723 75.3833 239.652 99.9027 231.127 108.32C218.971 102.117 208.698 88.0333 202.877 78.4118C226.09 60.9794 235.372 24.5063 233.411 11.0005Z" fill="url(#paint11_linear_6_2)"/>
<path d="M233.411 11.0005C231.45 -2.50528 244.44 1.03259 249.424 6.54713C254.901 14.5631 261.885 19.7835 261.804 47.5834C261.723 75.3833 239.652 99.9027 231.127 108.32C218.971 102.117 208.698 88.0333 202.877 78.4118C226.09 60.9794 235.372 24.5063 233.411 11.0005Z" fill="url(#paint12_linear_6_2)"/>
<path d="M198.239 69.8983C198.998 71.5554 200.596 74.6409 202.877 78.4118M236.621 110.51C234.754 109.978 232.92 109.234 231.127 108.32M202.877 78.4118C226.09 60.9794 235.372 24.5063 233.411 11.0005C231.45 -2.50528 244.44 1.03259 249.424 6.54713C254.901 14.5631 261.885 19.7835 261.804 47.5834C261.723 75.3833 239.652 99.9027 231.127 108.32M202.877 78.4118C208.698 88.0333 218.971 102.117 231.127 108.32" stroke="black"/>
<path d="M48.9117 10.463C50.951 -3.03115 37.9409 0.430958 32.9249 5.91637C27.4016 13.9003 20.3865 19.0799 20.3055 46.8798C20.2245 74.6797 42.1528 99.3272 50.6282 107.794C62.8209 101.662 73.1757 87.6385 79.0524 78.0511C55.941 60.4836 46.8724 23.9571 48.9117 10.463Z" fill="url(#paint13_linear_6_2)"/>
<path d="M48.9117 10.463C50.951 -3.03115 37.9409 0.430958 32.9249 5.91637C27.4016 13.9003 20.3865 19.0799 20.3055 46.8798C20.2245 74.6797 42.1528 99.3272 50.6282 107.794C62.8209 101.662 73.1757 87.6385 79.0524 78.0511C55.941 60.4836 46.8724 23.9571 48.9117 10.463Z" fill="url(#paint14_linear_6_2)"/>
<path d="M83.7397 69.5647C82.9711 71.2173 81.3557 74.2935 79.0524 78.0511M45.1218 109.952C46.9916 109.431 48.8299 108.698 50.6282 107.794M79.0524 78.0511C55.941 60.4836 46.8724 23.9571 48.9117 10.463C50.951 -3.03115 37.9409 0.430958 32.9249 5.91637C27.4016 13.9003 20.3865 19.0799 20.3055 46.8798C20.2245 74.6797 42.1528 99.3272 50.6282 107.794M79.0524 78.0511C73.1757 87.6385 62.8209 101.662 50.6282 107.794" stroke="black"/>
<path d="M227.5 166.5C215.5 179.7 200.167 175.667 194 172C202 171 210.5 170.5 219 162.5C225.8 156.1 225.5 143.5 224.5 138C228 141 236 155 227.5 166.5Z" fill="white" stroke="black"/>
<path d="M224.5 138C221.3 134 215.833 131 213.5 130C215.167 134.5 217.5 145.6 213.5 154C209.5 166 195.5 169 189 169L193 172C209 172 213.5 167 218.5 163.5C223.5 160 228.5 143 224.5 138Z" fill="#0D69C4" stroke="black"/>
<path d="M189.5 169C217.5 167.4 216.833 142.333 213 130C209 129 199.5 132 194 136C180 149.5 181 163.5 189.5 169Z" fill="black" stroke="black"/>
<circle cx="199.068" cy="143.036" r="7" transform="rotate(0.166931 199.068 143.036)" fill="white" stroke="black"/>
<circle cx="191.018" cy="160.013" r="5" transform="rotate(0.166931 191.018 160.013)" fill="white" stroke="black"/>
<path d="M58.78 165.694C70.78 178.894 86.1133 174.86 92.28 171.194C84.28 170.194 75.78 169.694 67.28 161.694C60.48 155.294 60.78 142.694 61.78 137.194C58.28 140.194 50.28 154.194 58.78 165.694Z" fill="white" stroke="black"/>
<path d="M61.78 137.194C64.98 133.194 70.4466 130.194 72.78 129.194C71.1133 133.694 68.78 144.794 72.78 153.194C76.78 165.194 90.78 168.194 97.28 168.194L93.28 171.194C77.28 171.194 72.78 166.194 67.78 162.694C62.78 159.194 57.78 142.194 61.78 137.194Z" fill="#0D69C4" stroke="black"/>
<path d="M96.78 168.194C68.78 166.594 69.4466 141.527 73.28 129.194C77.28 128.194 86.78 131.194 92.28 135.194C106.28 148.694 105.28 162.694 96.78 168.194Z" fill="black" stroke="black"/>
<circle cx="7.5" cy="7.5" r="7" transform="matrix(-0.999996 0.00291348 0.00291348 0.999996 94.6902 134.708)" fill="white" stroke="black"/>
<circle cx="5.5" cy="5.5" r="5" transform="matrix(-0.999996 0.00291348 0.00291348 0.999996 100.746 153.691)" fill="white" stroke="black"/>
<path d="M140.833 132.351C130.58 132.321 129.747 136.501 132.19 142.781C134.364 147.108 137.075 155.34 140.766 155.351C144.457 155.362 147.351 147.425 149.004 142.83C150.959 137.399 151.086 132.381 140.833 132.351Z" fill="#DFD8FF" stroke="black"/>
<path d="M141.077 175.352C135.681 175.336 135.242 177.699 136.527 181.248C137.671 183.694 139.096 188.346 141.039 188.352C142.982 188.358 144.506 183.871 145.377 181.274C146.406 178.204 146.473 175.368 141.077 175.352Z" fill="#DFD8FF" stroke="black"/>
<path d="M115.61 144.788C110.788 147.565 111.572 149.818 114.483 152.197C116.72 153.704 120.306 156.957 122.041 155.958C123.777 154.958 122.906 150.322 122.391 147.644C121.783 144.479 120.432 142.012 115.61 144.788Z" fill="#DFD8FF" stroke="black"/>
<path d="M124.182 159.891C119.361 162.668 120.144 164.921 123.055 167.3C125.292 168.807 128.878 172.06 130.613 171.061C132.349 170.061 131.478 165.425 130.963 162.747C130.355 159.582 129.004 157.115 124.182 159.891Z" fill="#DFD8FF" stroke="black"/>
<path d="M166.431 144.936C171.236 147.741 170.44 149.989 167.515 152.352C165.269 153.845 161.665 157.078 159.935 156.068C158.205 155.058 159.103 150.428 159.634 147.753C160.26 144.591 161.625 142.132 166.431 144.936Z" fill="#DFD8FF" stroke="black"/>
<path d="M157.771 159.989C162.576 162.794 161.78 165.042 158.855 167.405C156.609 168.898 153.005 172.13 151.275 171.121C149.545 170.111 150.443 165.481 150.974 162.806C151.6 159.644 152.965 157.185 157.771 159.989Z" fill="#DFD8FF" stroke="black"/>
<path d="M77.4028 185.167C77.401 185.795 77.0507 186.456 76.2745 187.12C75.5 187.782 74.3509 188.399 72.8883 188.926C69.967 189.979 65.9006 190.633 61.3869 190.62C56.8732 190.607 52.8106 189.929 49.8956 188.859C48.436 188.324 47.2906 187.7 46.5199 187.033C45.7476 186.365 45.4011 185.701 45.403 185.074C45.4048 184.446 45.7551 183.784 46.5313 183.12C47.3058 182.458 48.4549 181.841 49.9176 181.314C52.8388 180.261 56.9052 179.607 61.4189 179.62C65.9326 179.633 69.9952 180.311 72.9102 181.381C74.3698 181.916 75.5152 182.541 76.2859 183.207C77.0582 183.875 77.4047 184.539 77.4028 185.167Z" fill="#FFE3F3" stroke="black"/>
<path d="M239.402 185.639C239.4 186.267 239.05 186.928 238.274 187.592C237.499 188.254 236.35 188.871 234.888 189.398C231.966 190.451 227.9 191.105 223.386 191.092C218.872 191.079 214.81 190.401 211.895 189.331C210.435 188.796 209.29 188.172 208.519 187.505C207.747 186.837 207.4 186.173 207.402 185.545C207.404 184.918 207.754 184.256 208.531 183.592C209.305 182.93 210.454 182.313 211.917 181.786C214.838 180.733 218.905 180.079 223.418 180.092C227.932 180.105 231.995 180.783 234.91 181.853C236.369 182.388 237.515 183.013 238.285 183.679C239.058 184.347 239.404 185.011 239.402 185.639Z" fill="white"/>
<path d="M239.402 185.639C239.4 186.267 239.05 186.928 238.274 187.592C237.499 188.254 236.35 188.871 234.888 189.398C231.966 190.451 227.9 191.105 223.386 191.092C218.872 191.079 214.81 190.401 211.895 189.331C210.435 188.796 209.29 188.172 208.519 187.505C207.747 186.837 207.4 186.173 207.402 185.545C207.404 184.918 207.754 184.256 208.531 183.592C209.305 182.93 210.454 182.313 211.917 181.786C214.838 180.733 218.905 180.079 223.418 180.092C227.932 180.105 231.995 180.783 234.91 181.853C236.369 182.388 237.515 183.013 238.285 183.679C239.058 184.347 239.404 185.011 239.402 185.639Z" fill="white"/>
<path d="M239.402 185.639C239.4 186.267 239.05 186.928 238.274 187.592C237.499 188.254 236.35 188.871 234.888 189.398C231.966 190.451 227.9 191.105 223.386 191.092C218.872 191.079 214.81 190.401 211.895 189.331C210.435 188.796 209.29 188.172 208.519 187.505C207.747 186.837 207.4 186.173 207.402 185.545C207.404 184.918 207.754 184.256 208.531 183.592C209.305 182.93 210.454 182.313 211.917 181.786C214.838 180.733 218.905 180.079 223.418 180.092C227.932 180.105 231.995 180.783 234.91 181.853C236.369 182.388 237.515 183.013 238.285 183.679C239.058 184.347 239.404 185.011 239.402 185.639Z" fill="white"/>
<path d="M239.402 185.639C239.4 186.267 239.05 186.928 238.274 187.592C237.499 188.254 236.35 188.871 234.888 189.398C231.966 190.451 227.9 191.105 223.386 191.092C218.872 191.079 214.81 190.401 211.895 189.331C210.435 188.796 209.29 188.172 208.519 187.505C207.747 186.837 207.4 186.173 207.402 185.545C207.404 184.918 207.754 184.256 208.531 183.592C209.305 182.93 210.454 182.313 211.917 181.786C214.838 180.733 218.905 180.079 223.418 180.092C227.932 180.105 231.995 180.783 234.91 181.853C236.369 182.388 237.515 183.013 238.285 183.679C239.058 184.347 239.404 185.011 239.402 185.639Z" fill="#FFE3F3"/>
<path d="M239.402 185.639C239.4 186.267 239.05 186.928 238.274 187.592C237.499 188.254 236.35 188.871 234.888 189.398C231.966 190.451 227.9 191.105 223.386 191.092C218.872 191.079 214.81 190.401 211.895 189.331C210.435 188.796 209.29 188.172 208.519 187.505C207.747 186.837 207.4 186.173 207.402 185.545C207.404 184.918 207.754 184.256 208.531 183.592C209.305 182.93 210.454 182.313 211.917 181.786C214.838 180.733 218.905 180.079 223.418 180.092C227.932 180.105 231.995 180.783 234.91 181.853C236.369 182.388 237.515 183.013 238.285 183.679C239.058 184.347 239.404 185.011 239.402 185.639Z" stroke="black"/>
<path d="M147.857 200.872C148.362 199.374 154.872 195.893 157.365 198.4C159.857 200.907 155.357 200.894 147.857 200.872Z" fill="black" stroke="black"/>
<path d="M133.052 200.704C132.557 199.202 126.067 195.684 123.559 198.176C121.052 200.669 125.552 200.682 133.052 200.704Z" fill="black" stroke="black"/>
<path d="M132.827 211.328C133.657 212.331 136.018 214.338 138.818 214.346C142.318 214.356 146.321 213.368 148.322 212.873" stroke="black"/>
<path d="M195.57 128.011C194.568 128.508 190.063 130.495 189.058 131.992M96.5586 131.722C95.2292 130.385 92.2703 127.71 91.0703 127.706" stroke="black"/>
<defs>
<linearGradient id="paint0_linear_6_2" x1="15.611" y1="147.86" x2="29.5736" y2="186.417" gradientUnits="userSpaceOnUse">
<stop offset="0.165" stop-color="#DFD8FF"/>
<stop offset="0.745" stop-color="#3612E6"/>
</linearGradient>
<linearGradient id="paint1_linear_6_2" x1="29.0596" y1="182.831" x2="42.65" y2="220.36" gradientUnits="userSpaceOnUse">
<stop offset="0.165" stop-color="#DFD8FF"/>
<stop offset="0.745" stop-color="#3612E6"/>
</linearGradient>
<linearGradient id="paint2_linear_6_2" x1="13.6447" y1="106.981" x2="13.5143" y2="151.74" gradientUnits="userSpaceOnUse">
<stop offset="0.165" stop-color="#DFD8FF"/>
<stop offset="0.745" stop-color="#3612E6"/>
</linearGradient>
<linearGradient id="paint3_linear_6_2" x1="270.687" y1="147.842" x2="256.5" y2="186.317" gradientUnits="userSpaceOnUse">
<stop offset="0.165" stop-color="#DFD8FF"/>
<stop offset="0.745" stop-color="#3612E6"/>
</linearGradient>
<linearGradient id="paint4_linear_6_2" x1="258.767" y1="180.501" x2="244.958" y2="217.95" gradientUnits="userSpaceOnUse">
<stop offset="0.165" stop-color="#DFD8FF"/>
<stop offset="0.745" stop-color="#3612E6"/>
</linearGradient>
<linearGradient id="paint5_linear_6_2" x1="271.644" y1="107.732" x2="271.513" y2="152.491" gradientUnits="userSpaceOnUse">
<stop stop-color="#DFD8FF"/>
<stop offset="0.695" stop-color="#3612E6"/>
</linearGradient>
<linearGradient id="paint6_linear_6_2" x1="255.781" y1="259.655" x2="204.117" y2="325.782" gradientUnits="userSpaceOnUse">
<stop stop-color="#D8ECFF"/>
<stop offset="1" stop-color="#6243FF"/>
</linearGradient>
<linearGradient id="paint7_linear_6_2" x1="142.942" y1="226.09" x2="142.734" y2="297.632" gradientUnits="userSpaceOnUse">
<stop stop-color="#D8ECFF"/>
<stop offset="1" stop-color="#127CE6"/>
</linearGradient>
<linearGradient id="paint8_linear_6_2" x1="73.1321" y1="239.882" x2="89.4377" y2="269.401" gradientUnits="userSpaceOnUse">
<stop offset="0.14" stop-color="#6243FF"/>
<stop offset="1" stop-color="#D8ECFF"/>
</linearGradient>
<linearGradient id="paint9_linear_6_2" x1="214.689" y1="241.112" x2="195.765" y2="269.025" gradientUnits="userSpaceOnUse">
<stop offset="0.145" stop-color="#6243FF"/>
<stop offset="1" stop-color="#D8ECFF"/>
</linearGradient>
<linearGradient id="paint10_linear_6_2" x1="149.898" y1="15.3772" x2="149.583" y2="123.377" gradientUnits="userSpaceOnUse">
<stop stop-color="#6243FF"/>
<stop offset="0.365" stop-color="#DFD8FF"/>
</linearGradient>
<linearGradient id="paint11_linear_6_2" x1="230.188" y1="1.6111" x2="229.871" y2="110.491" gradientUnits="userSpaceOnUse">
<stop offset="0.35" stop-color="#D8ECFF"/>
<stop offset="1" stop-color="#127CE6"/>
</linearGradient>
<linearGradient id="paint12_linear_6_2" x1="230.188" y1="1.6111" x2="229.871" y2="110.491" gradientUnits="userSpaceOnUse">
<stop offset="0.35" stop-color="#D8ECFF"/>
<stop offset="1" stop-color="#127CE6"/>
</linearGradient>
<linearGradient id="paint13_linear_6_2" x1="52.189" y1="1.0925" x2="51.8718" y2="109.972" gradientUnits="userSpaceOnUse">
<stop offset="0.345" stop-color="#D8ECFF"/>
<stop offset="1" stop-color="#127CE6"/>
</linearGradient>
<linearGradient id="paint14_linear_6_2" x1="52.189" y1="1.0925" x2="51.8718" y2="109.972" gradientUnits="userSpaceOnUse">
<stop offset="0.345" stop-color="#D8ECFF"/>
<stop offset="1" stop-color="#127CE6"/>
</linearGradient>
</defs>
</svg>
